PathFileType	4	(X/Y/Z)	/Users/visionmauri/Downloads/pro-gait-dataset/4_0_1_f_1_Sports2D/4_0_1_f_1_Sports2D_px_person00.trc
DataRate	CameraRate	NumFrames	NumMarkers	Units	OrigDataRate	OrigDataStartFrame	OrigNumFrames
30.0	30.0	7	22	m	30.0	572	654
Frame#	Time	Hip			RHip			RKnee			RAnkle			RBigToe			RSmallToe			RHeel			LHip			LKnee			LAnkle			LBigToe			LSmallToe			LHeel			Neck			Head			Nose			RShoulder			RElbow			RWrist			LShoulder			LElbow			LWrist			
		X1	Y1	Z1	X2	Y2	Z2	X3	Y3	Z3	X4	Y4	Z4	X5	Y5	Z5	X6	Y6	Z6	X7	Y7	Z7	X8	Y8	Z8	X9	Y9	Z9	X10	Y10	Z10	X11	Y11	Z11	X12	Y12	Z12	X13	Y13	Z13	X14	Y14	Z14	X15	Y15	Z15	X16	Y16	Z16	X17	Y17	Z17	X18	Y18	Z18	X19	Y19	Z19	X20	Y20	Z20	X21	Y21	Z21	X22	Y22	Z22
572	19.095865237366002	565.7928957045319	895.536536591392	0.0	525.7873079076254	893.8662433372217	0.0	513.0386871421571	1008.9366011172768	0.0	519.2990803014858	1108.4278061770185	0.0	513.0420243146241	1165.5321902837647	0.0	495.7762324445787	1156.5976548996985	0.0	528.8686407872333	1114.9688885559217	0.0	602.881106429985	898.6241852516717	0.0	607.7958069289496	1037.7250439174795	0.0	600.3761438586891	1176.9470120760452	0.0	631.6620121429634	1225.2516093068334	0.0	645.1194131948131	1218.2665912562184	0.0	588.8559403270716	1194.8083722191898	0.0	586.2075142901932	707.7532240375963	0.0	603.2170197704902	612.704317723129	0.0	596.8103111309765	677.0880624115387	0.0	518.7829670286967	723.4652362067744	0.0	472.3484872353271	803.013644230534	0.0	448.5673925417489	881.1419925352335	0.0	646.372534909381	735.1394219134188	0.0	671.6021793578592	830.1975255831086	0.0	680.3555302290071	917.6366032413998	0.0
573	19.129249617151608	567.6747342827382	893.7808648488005	0.0	527.2298296247449	892.0571856556963	0.0	512.2865933724214	1008.757597697296	0.0	521.9923579058571	1109.4262044687725	0.0	516.692906892476	1167.8637757834397	0.0	499.36987042937204	1158.8730228609702	0.0	532.616984677787	1116.3365233935317	0.0	604.9664381427974	898.7131924498406	0.0	609.4830810923926	1038.095797257631	0.0	600.4217602177523	1177.0670529510724	0.0	631.5749346611788	1225.0145432476538	0.0	645.0847996058324	1217.443483332342	0.0	588.7308865264697	1195.4228963623484	0.0	589.7916542173573	703.6655815638491	0.0	606.8443561556284	608.9488699793751	0.0	598.6061912811945	672.1350535772801	0.0	522.2042397775224	720.38238704338	0.0	475.6541656918111	800.9696504668373	0.0	451.24926875395005	879.9929396558422	0.0	651.3626483314048	732.1792193188013	0.0	676.4139562359421	827.8153716437936	0.0	685.1137460748702	917.2904896190117	0.0
574	19.162633996937213	569.6814951342483	892.2735610436117	0.0	529.2858761665449	890.4402307221492	0.0	512.1732888940784	1009.6032693084741	0.0	525.1531554303784	1112.2961865392774	0.0	520.3815979259567	1172.2629853549768	0.0	503.06539786242035	1162.4904894383592	0.0	536.2627802341042	1120.4116974283643	0.0	606.8083053558712	898.5989769778605	0.0	611.0987431417179	1038.4055473501328	0.0	600.2891996179408	1177.2365398821482	0.0	631.1377822040859	1225.2270271438974	0.0	644.5728764867326	1217.2600661908425	0.0	588.7026303194207	1195.9549559582688	0.0	592.9763615435854	699.8691026958976	0.0	609.2836566880783	605.1052434379055	0.0	599.2890022900473	668.1291846792749	0.0	525.7062605860286	717.8506712110539	0.0	478.5028949829466	800.5237606420843	0.0	453.429862308241	880.6445538762465	0.0	656.0202245645137	729.2914197837247	0.0	681.1230765252252	825.2797414644338	0.0	689.7844716565602	915.7480594524916	0.0
575	19.19601837672282	571.7696385964151	891.9317596318651	0.0	531.691514985734	889.4410122909594	0.0	513.172952863089	1012.388772234791	0.0	527.9083043695239	1117.7817724592308	0.0	523.0646222183464	1180.334890393387	0.0	505.20311731585196	1169.3111461915541	0.0	538.4498840016608	1128.0589021826252	0.0	608.592560039529	898.5509222065207	0.0	612.7975846192968	1039.4259629885203	0.0	600.1881402548025	1177.486676363689	0.0	630.1727154424736	1225.89585218601	0.0	643.6678711717286	1217.9493298305845	0.0	588.7065222962639	1195.8371235865177	0.0	596.0196741076013	697.3249097748678	0.0	611.971189649944	600.6965025557355	0.0	601.001168932871	665.2543233019506	0.0	528.5737493407811	715.5777417734586	0.0	481.42876114771644	800.0491832835617	0.0	455.7502901884415	881.7856335572097	0.0	660.2584265596969	726.7209372681119	0.0	686.082506961615	822.9378957191589	0.0	694.661757156875	913.03536586425	0.0
576	19.22940275650842	573.7338680856918	892.2266144795966	0.0	533.7783771332677	889.4876083528834	0.0	515.2259986494137	1016.137658584349	0.0	529.3299250074194	1126.8036861246158	0.0	525.0413757438762	1190.5542396204814	0.0	505.8170537420656	1179.2807730038667	0.0	538.9329040571015	1139.4975138290881	0.0	610.5688204782557	898.6774341422034	0.0	614.5252162909941	1041.1573889873187	0.0	600.239567109409	1177.7045058230533	0.0	629.0959447661738	1226.4160394599498	0.0	642.4763372221461	1218.6561136244302	0.0	588.6887093595975	1195.1166258398296	0.0	598.6694034836626	695.4580782583055	0.0	614.7958791695505	597.1835260912317	0.0	603.0913744675653	663.4430895564203	0.0	530.5162562287992	713.3235298755727	0.0	484.5233868754975	798.5216883821718	0.0	458.6027323211631	882.3844190239137	0.0	663.6135121405508	724.1815347557704	0.0	690.5998315340166	820.4840669920101	0.0	699.5373948743962	909.0499981592363	0.0
577	19.262787136294026	575.5492280201162	892.379171287258	0.0	535.2372671115796	890.5650482958098	0.0	517.9337374145188	1020.1633198812901	0.0	529.4622034847135	1138.9821935189234	0.0	526.6602017977015	1200.6566387339367	0.0	505.96484017862394	1190.632601116715	0.0	538.8149507996226	1153.5869946104735	0.0	612.8416271824008	898.6998040104804	0.0	615.6305080764546	1042.8783663220638	0.0	600.3175727945111	1177.8859361639743	0.0	628.47216560556	1226.4540730380922	0.0	641.3833814910868	1218.8550123323116	0.0	588.7734967230489	1194.4759888489257	0.0	600.7503323775682	693.6600243971284	0.0	616.6316575746886	595.4990888645739	0.0	604.211255260623	662.7442207737981	0.0	531.6619240517749	711.4239800196007	0.0	486.91276772342553	796.7581341107002	0.0	461.39521245434395	882.2553428963168	0.0	666.0402273397126	721.8137915813822	0.0	694.0858405245244	817.915542820843	0.0	703.7860312427596	903.9549936699158	0.0
578	19.29617151607963	577.2276586846156	892.543501804931	0.0	536.3436795838326	891.8996965778772	0.0	520.7127502008893	1024.8163301756395	0.0	529.2987533411914	1151.9799917647158	0.0	527.1097425052201	1210.243454012424	0.0	505.97347609935287	1201.763954665767	0.0	539.2343933184723	1167.96325783133	0.0	615.313106751048	898.2602275504296	0.0	616.0064363354574	1043.876935876362	0.0	600.3456372227405	1178.1166156755012	0.0	628.3791980922091	1226.5794117719297	0.0	640.7801761306971	1218.796347744186	0.0	589.2007283982468	1194.6758330469002	0.0	602.3199030670511	692.4359982935545	0.0	617.6808153663852	594.1509279172121	0.0	605.2405815607596	662.6926920015362	0.0	532.2935820127041	710.2772615104075	0.0	487.86595058079854	796.1396082487221	0.0	463.2004205893625	882.0144503293903	0.0	667.9188796508195	720.0448364839232	0.0	697.2552611838855	815.7791276000447	0.0	706.8908515455333	899.3816221746857	0.0
